<?xml version="1.0" encoding="utf-8"?>
<!-- Generator: Adobe Illustrator 18.1.1, SVG Export Plug-In . SVG Version: 6.00 Build 0)  -->
<svg version="1.1" id="Layer_1" xmlns="http://www.w3.org/2000/svg" xmlns:xlink="http://www.w3.org/1999/xlink" x="0px" y="0px"
	 viewBox="0 0 256 256" enable-background="new 0 0 256 256" xml:space="preserve">
<polygon points="66.4,34.1 72.9,50.7 89.9,45.5 81.1,60.9 95.8,71 78.2,73.7 79.5,91.4 66.4,79.3 53.3,91.4 54.6,73.7 37,71 
	51.7,60.9 42.8,45.5 59.8,50.7 "/>
<circle cx="142.1" cy="62.8" r="25"/>
<polygon points="66.6,113.6 71,128.3 83.1,118.9 78,133.4 93.3,132.9 80.6,141.6 93.3,150.3 78,149.8 83.1,164.3 71,154.9 
	66.6,169.6 62.3,154.9 50.2,164.3 55.3,149.8 40,150.3 52.6,141.6 40,132.9 55.3,133.4 50.2,118.9 62.3,128.3 "/>
<path d="M163.2,162.7c3.1-3.1-0.4-11.8-8-21.1c7.5-9.3,11-18,8-21.1s-11.8,0.4-21.1,8c-9.3-7.5-18-11-21.1-8
	c-3.1,3.1,0.4,11.8,8,21.1c-7.5,9.3-11,18-8,21.1c3.1,3.1,11.8-0.4,21.1-8C151.5,162.3,160.2,165.8,163.2,162.7z"/>
<path d="M233.6,142c0-6.1-9.7-4.2-16.9-2.1c-0.1-0.4-0.3-0.9-0.6-1.3c6.1-3.7,14.2-9.7,10.6-13.3c-4.3-4.3-9.9,3.9-13.5,10.4
	c-0.4-0.2-0.8-0.4-1.3-0.5c1.7-7,3.2-16.8-1.9-16.8c-6.1,0-4.2,9.7-2.1,16.9c-0.5,0.1-0.9,0.3-1.3,0.6c-3.7-6.1-9.7-14.2-13.3-10.6
	c-4.3,4.3,3.9,9.8,10.5,13.4c-0.2,0.4-0.4,0.9-0.5,1.3c-7-1.7-16.8-3.2-16.8,1.9c0,6.1,9.7,4.2,16.9,2.1c0.1,0.5,0.3,0.9,0.6,1.3
	c-6.1,3.7-14.2,9.7-10.6,13.3c4.3,4.3,9.8-3.9,13.4-10.5c0.4,0.2,0.9,0.4,1.3,0.5c-1.7,7-3.2,16.8,1.9,16.8c6.1,0,4.2-9.7,2.1-16.9
	c0.5-0.1,0.9-0.3,1.3-0.6c3.7,6.1,9.7,14.2,13.3,10.6c4.3-4.3-3.9-9.8-10.5-13.4c0.2-0.4,0.4-0.9,0.5-1.3
	C223.7,145.6,233.6,147.1,233.6,142z"/>
</svg>
